<svg width="692" height="164" viewBox="0 0 692 164" fill="none" xmlns="http://www.w3.org/2000/svg">
<path d="M182.372 89.6497V113.584H171.22V49.063H195.783C201.982 48.7333 208.079 50.7487 212.873 54.712C214.96 56.5701 216.611 58.8714 217.704 61.4493C218.797 64.0272 219.306 66.8172 219.194 69.6172C219.343 72.389 218.864 75.1586 217.792 77.717C216.721 80.2754 215.085 82.5559 213.008 84.3863C208.877 87.9028 203.075 89.6497 195.647 89.6497H182.372ZM182.372 80.575H195.783C199.036 80.7979 202.256 79.795 204.813 77.7618C205.897 76.7172 206.739 75.4466 207.282 74.0395C207.824 72.6323 208.052 71.1228 207.951 69.6172C208.009 68.1061 207.761 66.5989 207.221 65.1871C206.682 63.7754 205.863 62.4885 204.813 61.4046C203.644 60.2987 202.267 59.4382 200.763 58.8734C199.259 58.3085 197.658 58.0507 196.054 58.115H182.372V80.575Z" fill="#229BD8"/>
<path d="M246.557 114.468C243.51 114.59 240.471 114.081 237.628 112.973C234.785 111.864 232.199 110.18 230.031 108.025C227.889 105.741 226.225 103.048 225.139 100.106C224.053 97.1631 223.567 94.0313 223.71 90.8962V89.5577C223.636 85.1292 224.579 80.7431 226.464 76.7397C228.159 73.1126 230.844 70.0442 234.208 67.8918C237.536 65.8012 241.391 64.7146 245.315 64.761C248.131 64.5918 250.948 65.0652 253.556 66.1457C256.164 67.2261 258.495 68.8857 260.374 70.9999C263.918 75.1743 265.679 81.0502 265.679 88.6729V93.0288H234.434C234.579 96.5361 235.983 99.8722 238.384 102.421C239.529 103.558 240.892 104.451 242.39 105.043C243.888 105.636 245.49 105.917 247.099 105.87C249.451 105.953 251.789 105.46 253.909 104.432C256.029 103.404 257.868 101.873 259.267 99.971L265.047 105.529C263.131 108.396 260.489 110.698 257.394 112.199C254.005 113.789 250.295 114.565 246.557 114.468ZM245.27 73.382C243.929 73.3368 242.596 73.5923 241.365 74.1299C240.135 74.6675 239.04 75.4738 238.159 76.4901C236.175 78.9626 234.965 81.9705 234.682 85.1338H255.001V84.3397C254.991 81.3699 253.98 78.4909 252.133 76.1725C251.251 75.2465 250.182 74.519 248.999 74.038C247.816 73.557 246.545 73.3334 245.27 73.382Z" fill="#229BD8"/>
<path d="M270.194 89.2629C269.883 82.9259 271.687 76.6658 275.319 71.4764C276.877 69.3041 278.941 67.5481 281.329 66.3617C283.718 65.1753 286.36 64.5946 289.023 64.6704C291.33 64.5871 293.627 65.0202 295.747 65.9383C297.867 66.8565 299.758 68.2367 301.282 69.9791V45.5227H312.006V113.583H302.298L301.779 108.615C300.235 110.523 298.271 112.046 296.042 113.061C293.812 114.077 291.379 114.559 288.933 114.468C286.295 114.52 283.685 113.927 281.325 112.742C278.966 111.556 276.928 109.813 275.387 107.662C271.67 102.279 269.844 95.8052 270.194 89.2629ZM280.918 90.193C280.702 94.1704 281.677 98.1216 283.718 101.536C284.577 102.851 285.761 103.918 287.154 104.634C288.547 105.35 290.101 105.69 291.664 105.62C293.666 105.708 295.649 105.197 297.362 104.151C299.074 103.105 300.438 101.571 301.282 99.7442V79.326C300.442 77.524 299.088 76.0138 297.391 74.9877C295.695 73.9615 293.733 73.4658 291.755 73.5636C290.174 73.4893 288.602 73.8337 287.195 74.5623C285.788 75.291 284.597 76.3783 283.74 77.7153C281.607 81.5082 280.626 85.8461 280.918 90.193Z" fill="#229BD8"/>
<path d="M345.666 108.887C343.997 110.776 341.923 112.26 339.6 113.227C337.277 114.194 334.766 114.618 332.256 114.468C330.087 114.627 327.911 114.303 325.881 113.519C323.852 112.734 322.02 111.509 320.516 109.931C317.619 106.171 316.197 101.472 316.52 96.7272V65.6462H327.222V96.5684C327.222 102.648 329.75 105.643 334.762 105.643C339.774 105.643 343.499 103.783 345.305 100.017V65.6462H356.029V113.583H345.937L345.666 108.887Z" fill="#229BD8"/>
<path d="M371.246 113.583H360.544V45.5227H371.246V113.583Z" fill="#229BD8"/>
<path d="M375.761 53.1909C375.741 52.432 375.87 51.6766 376.141 50.968C376.412 50.2594 376.82 49.6116 377.341 49.0619C377.938 48.4866 378.648 48.0438 379.426 47.7624C380.204 47.481 381.032 47.3672 381.856 47.4285C382.681 47.3728 383.507 47.4892 384.284 47.7703C385.061 48.0515 385.772 48.4912 386.372 49.0619C386.897 49.6087 387.308 50.2559 387.579 50.9652C387.851 51.6745 387.977 52.4314 387.952 53.1909C387.969 53.9412 387.836 54.6873 387.561 55.3849C387.285 56.0824 386.873 56.7173 386.349 57.2519C385.745 57.814 385.033 58.2467 384.256 58.5236C383.48 58.8006 382.656 58.9159 381.834 58.8626C381.011 58.9213 380.186 58.8085 379.409 58.5313C378.632 58.2541 377.92 57.8185 377.319 57.2519C376.806 56.7114 376.404 56.0744 376.137 55.3775C375.869 54.6806 375.742 53.9376 375.761 53.1909ZM387.049 113.583H376.438V65.646H387.139L387.049 113.583Z" fill="#229BD8"/>
<path d="M403.872 104.622H433.018V113.583H392.764V49.0618H403.917L403.872 104.622Z" fill="#229BD8"/>
<path d="M437.532 53.1908C437.508 52.4333 437.633 51.6784 437.9 50.9697C438.168 50.261 438.572 49.6126 439.09 49.0618C440.353 47.9902 441.952 47.4023 443.605 47.4023C445.258 47.4023 446.858 47.9902 448.121 49.0618C448.65 49.6067 449.065 50.2531 449.34 50.9624C449.615 51.6718 449.746 52.4297 449.723 53.1908C449.741 53.941 449.607 54.6871 449.332 55.3847C449.057 56.0823 448.645 56.7172 448.121 57.2517C446.852 58.3107 445.255 58.8904 443.605 58.8904C441.956 58.8904 440.359 58.3107 439.09 57.2517C438.576 56.712 438.174 56.0751 437.906 55.3781C437.639 54.681 437.512 53.9376 437.532 53.1908ZM448.82 113.583H438.097V65.6458H448.82V113.583Z" fill="#229BD8"/>
<path d="M464.263 65.6459L464.58 71.1815C466.25 69.0907 468.383 67.4213 470.809 66.3065C473.236 65.1918 475.888 64.6625 478.554 64.7611C488.488 64.7611 493.545 70.4707 493.726 81.8897V113.583H483.002V82.5249C483.208 80.0901 482.508 77.665 481.038 75.7189C480.19 74.9054 479.18 74.2825 478.075 73.8913C476.969 73.5002 475.794 73.3498 474.626 73.4502C472.62 73.3875 470.639 73.9115 468.924 74.9586C467.208 76.0057 465.833 77.5309 464.963 79.3488V113.583H454.172V65.6459H464.263Z" fill="#229BD8"/>
<path d="M498.15 89.2629C497.832 82.9285 499.628 76.6687 503.253 71.4764C504.815 69.3038 506.883 67.5479 509.275 66.3617C511.668 65.1755 514.312 64.5948 516.979 64.6704C519.286 64.5871 521.583 65.0202 523.703 65.9383C525.823 66.8565 527.714 68.2367 529.238 69.9791V45.5227H539.939V113.583H530.254L529.712 108.615C528.175 110.514 526.222 112.031 524.005 113.046C521.789 114.061 519.369 114.548 516.934 114.468C514.297 114.518 511.687 113.924 509.328 112.739C506.969 111.554 504.931 109.812 503.388 107.662C499.896 103.17 498.15 97.0369 498.15 89.2629ZM508.851 90.193C508.646 94.1693 509.62 98.1174 511.651 101.536C512.512 102.854 513.7 103.924 515.097 104.64C516.495 105.356 518.053 105.694 519.62 105.62C521.622 105.708 523.605 105.197 525.318 104.151C527.03 103.105 528.394 101.571 529.238 99.7442V79.3261C528.396 77.5259 527.041 76.0174 525.345 74.9916C523.649 73.9658 521.688 73.4688 519.711 73.5636C518.128 73.4989 516.556 73.8473 515.148 74.5749C513.739 75.3025 512.542 76.3845 511.674 77.7153C509.54 81.5082 508.559 85.8461 508.851 90.193Z" fill="#229BD8"/>
<path d="M573.599 108.887C571.933 110.775 569.863 112.258 567.544 113.224C565.225 114.191 562.718 114.616 560.212 114.468C558.04 114.627 555.86 114.303 553.827 113.519C551.793 112.735 549.957 111.51 548.449 109.931C545.552 106.171 544.13 101.472 544.453 96.7272V65.6462H555.177V96.5684C555.177 102.618 557.691 105.643 562.718 105.643C567.91 105.643 571.432 103.783 573.261 100.017V65.6462H583.962V113.583H573.87L573.599 108.887Z" fill="#229BD8"/>
<path d="M598.592 65.6456L598.886 71.1812C600.549 69.1056 602.668 67.4457 605.077 66.3317C607.486 65.2177 610.119 64.68 612.77 64.7609C622.734 64.7609 627.791 70.4704 627.941 81.8894V113.583H617.24V82.5246C617.447 80.0898 616.747 77.6647 615.276 75.7186C614.427 74.9076 613.417 74.2861 612.312 73.8952C611.207 73.5042 610.032 73.3524 608.864 73.4499C606.858 73.3843 604.876 73.9071 603.16 74.9546C601.444 76.002 600.069 77.5288 599.202 79.3485V113.583H588.478V65.6456H598.592Z" fill="#229BD8"/>
<path d="M632.456 89.2626C632.126 82.8921 633.974 76.5999 637.694 71.4307C639.307 69.288 641.407 67.5644 643.819 66.404C646.23 65.2436 648.883 64.6802 651.556 64.7608C653.987 64.6573 656.409 65.1195 658.633 66.1111C660.857 67.1028 662.824 68.5972 664.379 70.4779L664.876 65.6456H674.538V112.131C674.676 114.887 674.225 117.641 673.217 120.208C672.208 122.775 670.665 125.095 668.691 127.013C664.326 130.821 658.659 132.774 652.888 132.458C649.343 132.433 645.844 131.66 642.615 130.19C639.619 128.997 636.998 127.014 635.03 124.45L640.132 118.12C641.578 119.971 643.427 121.465 645.536 122.487C647.645 123.509 649.959 124.033 652.301 124.019C655.377 124.19 658.398 123.148 660.722 121.115C661.804 119.991 662.639 118.65 663.172 117.181C663.705 115.711 663.924 114.145 663.815 112.585V109.295C662.258 111.012 660.345 112.366 658.212 113.259C656.078 114.153 653.775 114.566 651.465 114.468C648.82 114.52 646.201 113.941 643.822 112.777C641.444 111.614 639.374 109.899 637.784 107.775C634.247 103.313 632.471 97.1424 632.456 89.2626ZM643.135 90.1927C642.917 94.1884 643.942 98.1532 646.07 101.536C646.968 102.858 648.184 103.929 649.605 104.651C651.026 105.373 652.606 105.722 654.197 105.665C656.163 105.756 658.114 105.279 659.819 104.29C661.524 103.3 662.91 101.841 663.815 100.084V79.0308C662.916 77.2969 661.54 75.8593 659.851 74.8899C658.161 73.9204 656.23 73.4599 654.287 73.5633C652.673 73.5008 651.069 73.856 649.63 74.5949C648.191 75.3337 646.965 76.4315 646.07 77.783C643.868 81.5273 642.845 85.8533 643.135 90.1927Z" fill="#229BD8"/>
<path d="M679.054 53.1908C679.03 52.4333 679.155 51.6784 679.422 50.9697C679.69 50.261 680.094 49.6126 680.612 49.0618C681.875 47.9902 683.474 47.4023 685.127 47.4023C686.78 47.4023 688.38 47.9902 689.643 49.0618C690.172 49.6067 690.587 50.2531 690.862 50.9624C691.137 51.6718 691.268 52.4297 691.245 53.1908C691.263 53.941 691.129 54.6871 690.854 55.3847C690.579 56.0823 690.167 56.7172 689.643 57.2517C688.374 58.3107 686.777 58.8904 685.127 58.8904C683.478 58.8904 681.881 58.3107 680.612 57.2517C680.098 56.712 679.696 56.0751 679.428 55.3781C679.161 54.681 679.034 53.9376 679.054 53.1908ZM690.342 113.583H679.709V65.6458H690.41L690.342 113.583Z" fill="#229BD8"/>
<path d="M133.256 81.1964C133.273 90.0166 130.131 98.5516 124.399 105.255L124.099 105.571L120.295 109.392L120.105 109.534L79.8807 149.79L66.6198 163.067L42.7817 139.213L56.0426 125.92L66.6198 136.513L86.1323 116.969L107.476 95.6413L110.491 92.626C112.912 89.54 114.281 85.7599 114.397 81.8396C114.514 77.9191 113.372 74.0645 111.139 70.8402C109.597 68.6376 107.606 66.7867 105.297 65.4096C101.285 63.0707 96.5371 62.3323 92.0035 63.342C87.47 64.3518 83.4845 67.0352 80.8437 70.856C80.4039 68.8755 79.8236 66.9287 79.1071 65.0307C77.4513 60.5875 75.1073 56.4322 72.1609 52.717C78.8569 47.075 87.3378 43.9926 96.0937 44.0185C97.404 44.0185 98.6827 44.0185 99.9457 44.2079C109.087 45.1535 117.553 49.4556 123.706 56.2822C129.859 63.1087 133.262 71.9746 133.256 81.1648V81.1964Z" fill="#229BD8"/>
<path d="M72.9345 71.2501C71.4445 65.8924 68.7706 60.9375 65.11 56.7511C61.4494 52.5647 56.8956 49.2537 51.7845 47.0622C46.6734 44.8708 41.1355 43.8549 35.5794 44.0895C30.0232 44.324 24.5907 45.8031 19.6825 48.4176C14.7743 51.0321 10.5158 54.7152 7.22108 59.1952C3.9264 63.6753 1.67964 68.8379 0.646573 74.3022C-0.386491 79.7665 -0.179494 85.393 1.25229 90.7666C2.68407 96.1402 5.30411 101.124 8.91908 105.35L13.0079 109.423L23.8692 120.3L37.1301 133.561L44.2341 126.457L50.4699 120.3L61.3312 109.423L65.42 105.35C65.8462 104.86 66.2725 104.339 66.6672 103.771C71.6484 97.289 74.341 89.339 74.3237 81.1642C74.3055 77.8123 73.8383 74.478 72.9345 71.2501ZM51.4487 92.736L48.6544 95.546L37.1301 107.023L25.7478 95.6407L22.7167 92.5939C20.5791 89.8803 19.2504 86.6187 18.8832 83.1839C18.516 79.749 19.1254 76.2803 20.6411 73.1762C22.1569 70.0721 24.5176 67.4586 27.4521 65.636C30.3866 63.8133 33.7757 62.8555 37.23 62.8726C40.6844 62.8897 44.0639 63.881 46.9802 65.7325C49.8965 67.5841 52.2312 70.2208 53.7162 73.3397C55.2012 76.4587 55.7762 79.9333 55.3751 83.3643C54.974 86.7954 53.6131 90.0437 51.4487 92.736Z" fill="#229BD8"/>
<path fill-rule="evenodd" clip-rule="evenodd" d="M52.4909 18.6645C52.4943 22.2118 51.4823 25.6859 49.5745 28.6764C47.6666 31.6669 44.9426 34.0488 41.7243 35.5406C39.4501 36.6159 36.9798 37.2141 34.4656 37.2982C31.9515 37.3824 29.4467 36.9508 27.1057 36.03C23.9424 34.8 21.1749 32.7298 19.1015 30.0427C17.0282 27.3556 15.7276 24.1535 15.3402 20.7817C14.9527 17.4099 15.493 13.9962 16.9028 10.9089C18.3126 7.82151 20.5384 5.17754 23.3402 3.26206C26.1421 1.34657 29.4136 0.232239 32.8021 0.0392144C36.1907 -0.15381 39.5676 0.581795 42.5688 2.16671C45.5701 3.75163 48.0817 6.12573 49.833 9.03303C51.5843 11.9403 52.5087 15.2705 52.5067 18.6645H52.4909Z" fill="#229BD8"/>
<path fill-rule="evenodd" clip-rule="evenodd" d="M118.037 18.6647C118.039 22.8336 116.638 26.8819 114.059 30.1575C113.151 31.3455 112.089 32.4073 110.901 33.3148C107.578 35.8947 103.479 37.2726 99.2725 37.224C95.0658 37.1754 90.9996 35.703 87.737 33.047C84.4744 30.391 82.2078 26.7081 81.3068 22.5987C80.4059 18.4893 80.9237 14.1958 82.7758 10.4185C84.6279 6.64108 87.7052 3.60259 91.5057 1.79843C95.3062 -0.00574027 99.6058 -0.46915 103.703 0.483758C107.801 1.43667 111.455 3.74968 114.07 7.04564C116.684 10.3416 118.105 14.4261 118.1 18.6331L118.037 18.6647Z" fill="#229BD8"/>
</svg>
